<svg xmlns="http://www.w3.org/2000/svg" xmlns:xlink="http://www.w3.org/1999/xlink" version="1.1" id="Layer_1" x="0px" y="0px" width="100%" viewBox="0 0 432 432" enable-background="new 0 0 432 432" xml:space="preserve">
<path fill="#d7d7d7" opacity="1.000000" stroke="none" d=" M427.418884,219.698395   C413.916260,229.462601 400.729553,239.087891 387.401245,248.512878   C384.612030,250.485229 383.544617,252.159439 384.502197,255.822464   C389.879120,276.390625 382.453888,296.327057 364.910217,308.297791   C361.229309,310.809448 359.944702,313.135651 360.742218,317.651581   C363.198364,331.559509 365.136780,345.559326 367.230988,359.530212   C367.474365,361.153748 367.433777,362.819885 367.549530,364.912659   C361.692017,365.602570 356.251343,363.791260 350.758606,363.115875   C340.350861,361.836121 329.979248,360.224274 319.630798,358.518738   C315.323151,357.808807 312.487427,358.881500 310.171844,362.823761   C301.069397,378.320679 277.888275,389.031952 258.928436,383.436981   C254.906311,382.250031 252.324936,383.103668 249.775116,386.783569   C241.141922,399.242920 232.085632,411.409424 223.159531,423.664917   C222.100769,425.118561 221.341782,426.887329 219.501556,427.672546   C217.458115,427.194489 216.781540,425.321991 215.734894,423.894257   C206.474945,411.262726 197.180328,398.654968 188.091919,385.900574   C186.130753,383.148315 184.244446,382.424438 181.000595,383.335785   C158.188232,389.744812 136.033768,376.387848 127.887589,361.736877   C125.886139,358.137238 123.185524,358.033966 119.918343,358.515839   C105.754242,360.604889 91.594490,362.723572 77.426529,364.785980   C75.501793,365.066101 73.514389,365.789642 71.249474,364.438721   C71.736984,355.128174 73.935486,345.918884 75.153328,336.589081   C76.078323,329.502747 77.327347,322.456177 78.550392,315.412476   C79.067673,312.433350 77.608063,310.873077 75.315758,309.354828   C59.564114,298.921661 52.088177,284.167511 52.710850,265.315430   C52.781940,263.163055 52.778534,260.849792 53.554722,258.909149   C55.770412,253.369461 53.601170,250.189255 49.003788,247.024872   C36.793915,238.620834 24.901035,229.755676 12.904640,221.042862   C11.592839,220.090103 10.013108,219.310608 9.484341,216.845764   C16.891191,211.387161 24.477280,205.751404 32.112759,200.183350   C38.440083,195.569229 44.761559,190.941696 51.214806,186.508133   C54.061970,184.552032 54.912800,182.567902 54.077587,178.986908   C49.100819,157.648788 56.882710,138.465698 75.351128,126.235794   C78.192986,124.353905 78.768303,122.413742 78.187904,119.153191   C76.730606,110.966248 75.818108,102.684059 74.547379,94.461670   C73.304665,86.420441 71.869110,78.408470 71.275894,69.718422   C78.133118,69.446548 84.573143,71.204674 91.063950,72.028519   C100.800049,73.264275 110.480911,74.954857 120.163857,76.579636   C123.849274,77.198036 126.261948,76.229942 128.475876,72.922958   C140.766510,54.564342 159.813202,47.192455 181.479843,52.315105   C184.983368,53.143440 187.025818,52.234146 189.049133,49.428448   C197.819275,37.266960 206.747086,25.219000 215.648529,13.152604   C216.610794,11.848199 217.236038,10.181853 219.966629,9.231802   C223.806320,14.338490 227.874252,19.684748 231.873230,25.082088   C238.021957,33.380875 244.235260,41.635960 250.178619,50.080292   C252.034088,52.716557 253.857285,53.261875 256.865509,52.465591   C278.491241,46.741215 299.109009,54.808441 310.870148,73.753799   C312.586243,76.518158 314.216888,77.231873 317.262360,76.744347   C331.556976,74.456032 345.881439,72.353790 360.198608,70.207596   C362.318939,69.889755 364.457275,69.692017 366.771912,69.416763   C368.437775,74.208672 366.486511,78.533180 365.942841,82.835381   C364.379425,95.207367 362.474792,107.538986 360.511169,119.855698   C360.012665,122.982597 361.034149,124.715385 363.606812,126.393745   C382.373779,138.637131 390.138092,158.601822 384.340546,180.101471   C383.462341,183.358078 384.829163,184.609650 386.987183,186.153595   C400.265930,195.653610 413.507568,205.205536 426.745575,214.762329   C428.466370,216.004578 430.990723,217.197815 427.418884,219.698395  M168.563217,357.517670   C172.784897,346.761047 177.006577,336.004425 181.058334,325.680756   C183.643753,325.550079 184.581238,326.618835 185.631210,327.378021   C191.730667,331.788208 191.886185,332.356842 189.079300,339.248718   C187.446136,343.258728 185.982178,347.353149 184.087753,351.236755   C182.344360,354.810669 182.774094,357.621185 185.179855,360.821869   C193.687332,372.140289 201.866959,383.704498 210.307800,395.073853   C213.144836,398.895233 215.282745,403.335754 219.247421,406.245544   C221.179733,405.596893 221.982010,404.101166 222.948029,402.766144   C230.566513,392.237610 238.206375,381.724487 245.809158,371.184601   C249.313232,366.326843 254.512329,361.816223 255.724136,356.424713   C256.956787,350.940552 251.992722,345.398743 249.989456,339.790253   C249.933411,339.633362 249.874146,339.477600 249.815308,339.321716   C247.090424,332.103699 247.198898,332.230682 253.018051,327.258942   C256.285370,324.467407 257.713593,325.497131 259.067261,329.003754   C262.125549,336.926117 265.134216,344.886749 268.677338,352.595398   C270.662811,356.915100 269.888824,360.136780 267.047241,363.524384   C265.213226,365.710785 262.832306,367.717621 262.597595,370.909088   C275.409698,374.980652 292.030609,368.344574 298.664795,356.713501   C297.016449,354.870667 294.600342,355.014618 292.629333,355.089844   C283.021179,355.456573 278.500580,350.266510 275.953766,341.642120   C273.855865,334.537842 270.665283,327.756226 268.032806,321.020630   C270.179657,319.169220 272.257111,319.296112 274.166199,318.812744   C278.724152,317.658569 281.230591,319.129730 282.539490,323.825989   C283.738098,328.126404 286.092499,332.093353 287.472748,336.357666   C288.787415,340.419250 291.410706,342.098389 295.432648,342.648895   C311.592834,344.860748 327.721313,347.308624 343.893341,349.426025   C346.558197,349.774963 349.301208,351.138031 351.988342,350.081085   C352.217499,349.516724 352.482971,349.193695 352.442841,348.914612   C349.695587,329.816162 346.898407,310.724884 344.182800,291.621979   C343.794373,288.889374 342.080444,287.655701 339.799072,286.737366   C334.546570,284.622986 329.312958,282.461792 324.069031,280.326080   C322.352448,279.626953 320.296356,278.968445 320.428131,276.755035   C320.630493,273.355713 320.148804,269.733948 322.852020,266.098480   C333.044342,270.455841 343.270203,274.795807 353.460419,279.217896   C355.009979,279.890289 355.071472,281.540497 355.406738,283.035217   C356.439941,287.640808 356.361450,292.516266 358.377838,296.923462   C368.723938,293.191223 377.983246,271.242218 371.654114,260.488342   C369.066956,262.261230 366.305023,263.802246 363.974091,265.836945   C360.789917,268.616394 357.688538,268.867249 353.898254,267.162048   C346.001129,263.609253 337.969147,260.356995 330.014618,256.930084   C328.839264,256.423737 327.425049,256.059357 327.011993,254.020569   C327.926117,252.834351 329.179047,251.492493 330.104248,249.953613   C332.689392,245.653702 335.832245,245.326630 340.138763,247.620865   C344.234161,249.802612 348.837555,251.019119 352.982697,253.122818   C356.475098,254.895218 359.051056,254.237808 362.064301,252.011093   C376.534943,241.317596 391.152618,230.823151 405.703308,220.237747   C406.733154,219.488556 408.098053,218.920532 408.002502,217.286682   C407.820526,216.972427 407.724426,216.592468 407.480927,216.416626   C391.543976,204.907089 375.583527,193.430023 359.663361,181.897339   C357.882935,180.607590 356.288330,181.000366 354.518066,181.734940   C348.980774,184.032684 343.416534,186.265289 337.871643,188.544800   C336.140320,189.256531 334.385010,190.073349 332.810913,188.364990   C330.497803,185.854614 327.936157,183.483047 326.823578,179.503281   C337.045044,175.287308 347.014069,171.156937 357.000854,167.069824   C359.384308,166.094391 361.088593,167.632950 362.922699,168.805008   C365.922760,170.722153 368.358582,173.667130 372.113617,174.290527   C377.240417,163.093216 369.836761,143.677307 358.687073,138.958511   C357.082977,142.309296 356.776093,145.968597 356.326965,149.544205   C355.826752,153.526535 354.287933,156.135971 350.168884,157.609253   C343.121094,160.130112 336.322052,163.340820 329.390350,166.193314   C321.367310,169.494888 321.155273,169.249344 320.425659,160.527176   C320.172485,157.500580 321.155365,155.789597 323.921936,154.799210   C326.272339,153.957809 328.485199,152.610504 330.890015,152.064056   C340.812408,149.809433 346.904541,144.602890 345.973297,133.567413   C345.946899,133.254868 346.163849,132.929413 346.212219,132.601837   C348.349243,118.127769 350.467651,103.650940 352.620239,89.179199   C353.160736,85.545486 352.158508,83.910965 348.059570,84.562149   C330.797241,87.304550 313.515503,89.931740 296.215302,92.423729   C291.947449,93.038483 289.281128,94.863785 287.957642,99.097183   C286.769592,102.897491 284.955627,106.499451 283.472107,110.210648   C280.829041,116.822472 279.610352,117.451225 272.669434,116.098503   C269.306793,115.443161 268.131927,114.050308 269.642090,110.584976   C273.233887,102.342949 276.627472,94.013168 280.003998,85.679482   C281.071686,83.044243 282.886108,82.059296 285.637085,81.549004   C289.935944,80.751549 294.627991,81.400688 298.506470,78.747063   C295.516510,68.877922 272.398956,58.268627 261.695007,65.364166   C263.806061,68.148483 265.792297,71.019363 268.041412,73.666939   C270.499573,76.560539 270.716064,79.340553 269.086945,82.808395   C266.754425,87.773537 265.107819,93.058182 262.837860,98.056320   C261.022430,102.053658 260.074646,106.525589 256.993408,110.167160   C255.605286,109.408005 254.402115,108.866882 253.323502,108.140739   C247.300140,104.085793 247.141998,103.549179 249.872894,96.832947   C251.567001,92.666557 253.122772,88.430267 255.075989,84.387367   C256.555298,81.325378 256.322052,78.959114 254.233002,76.194542   C243.586456,62.105312 233.125351,47.876015 222.577652,33.711899   C221.619659,32.425461 220.917099,30.746571 218.753418,30.677086   C218.324493,31.057947 217.743668,31.421122 217.363678,31.933294   C206.245819,46.918652 195.180389,61.943081 184.011322,76.890083   C182.370651,79.085732 182.492706,81.140808 183.417679,83.418854   C185.673553,88.974731 187.893204,94.545731 190.204346,100.078522   C190.876587,101.687798 191.617416,103.237083 189.940903,104.588783   C187.389404,106.645943 185.118042,109.163513 181.957443,110.018456   C180.314667,109.302879 180.009048,107.958946 179.514160,106.738731   C176.259644,98.714134 173.154861,90.623550 169.672943,82.698730   C168.028534,78.956017 168.687866,76.144730 171.203644,73.141930   C173.370499,70.555557 175.916214,68.088676 176.857147,64.625031   C164.448471,59.821533 144.275040,67.723579 140.209732,78.967369   C144.751251,80.701347 149.596542,80.830963 154.293839,81.611229   C156.278519,81.940910 157.701309,82.581154 158.490356,84.553917   C162.077301,93.522095 165.736496,102.461357 169.351196,111.418503   C169.844894,112.641945 170.433716,113.878838 169.243683,115.112930   C166.401962,118.059845 157.706131,116.380310 156.158722,112.534492   C154.355927,108.053879 152.272034,103.649643 150.925446,99.032791   C149.645081,94.642982 146.879822,93.022652 142.690506,92.427383   C129.508942,90.554382 116.378693,88.302200 103.176399,86.601860   C97.520775,85.873459 91.914886,84.088570 85.837387,84.541855   C85.915466,85.840515 85.905525,86.648590 86.020210,87.438568   C88.194054,102.412086 91.127274,117.324478 92.319458,132.375000   C93.186890,143.325760 97.294266,150.035889 108.238892,152.128510   C109.516151,152.372711 110.685936,153.165375 111.913643,153.684631   C118.827744,156.608887 119.221825,157.496857 117.982620,164.941086   C117.420906,168.315445 116.017845,169.109634 112.861572,167.765366   C104.432404,164.175339 95.955284,160.693954 87.444374,157.302002   C84.438652,156.104095 83.181908,154.037537 82.704536,150.929947   C82.086121,146.904205 82.151299,142.665054 80.070580,138.931335   C69.170776,143.640656 61.707977,163.417480 66.657555,174.380753   C70.012085,173.656754 72.556808,171.372803 74.977722,169.269424   C78.083305,166.571152 80.996895,166.452118 84.562614,168.007538   C92.196884,171.337692 99.930458,174.439606 107.602097,177.685257   C109.088753,178.314224 110.854538,178.653519 111.524437,180.496902   C111.338829,182.097397 110.102051,183.077087 109.302437,184.322083   C106.487953,188.704208 103.256447,190.328262 98.111763,187.471329   C93.774391,185.062714 88.887466,183.660522 84.313431,181.654068   C82.077179,180.673111 80.379585,180.922287 78.356834,182.387375   C63.651485,193.038498 48.845695,203.550858 34.092571,214.136246   C32.798473,215.064774 31.128752,215.761215 30.991125,217.711777   C31.873127,219.491852 33.505547,220.414032 34.969437,221.480103   C47.628685,230.699295 60.554905,239.576340 72.869179,249.234146   C78.714951,253.818832 83.859612,255.241287 90.307549,251.175552   C92.527397,249.775848 95.220634,249.139725 97.667305,248.084503   C104.962608,244.938156 109.318680,247.295486 111.475578,255.928299   C102.794731,259.542206 93.962959,262.979340 85.353317,266.903809   C81.018036,268.879974 77.580276,268.721375 74.005539,265.483521   C71.870255,263.549438 69.635544,261.411438 66.481781,261.090240   C61.958462,272.891144 69.630142,292.298645 80.600021,296.781067   C82.044670,293.192657 82.515640,289.423218 82.769318,285.628418   C83.022591,281.839722 84.399231,279.202972 88.287003,277.701141   C96.518410,274.521362 104.584900,270.914795 112.720963,267.487885   C113.923126,266.981537 115.104057,266.150665 116.426918,267.238770   C119.467354,269.739563 118.445374,278.646332 114.838280,280.218842   C110.716805,282.015625 106.577431,283.817139 102.322403,285.250061   C97.111580,287.004883 93.560837,289.688110 93.865196,295.854279   C93.978043,298.140564 93.301102,300.469788 92.950768,302.774323   C90.777000,317.073242 88.568504,331.366913 86.434761,345.671783   C86.007202,348.538147 85.897675,351.018372 90.345139,350.346497   C108.280228,347.637085 126.247688,345.140747 144.209656,342.611633   C147.426910,342.158630 149.702255,340.943176 150.823120,337.541412   C152.279572,333.121185 154.210434,328.854156 156.001968,324.548218   C158.604065,318.294098 159.503448,317.894928 166.162399,319.061707   C169.683502,319.678680 171.147934,320.948547 169.485214,324.770203   C166.030869,332.709717 162.698593,340.717346 159.744263,348.852478   C158.451904,352.411163 156.400848,353.900116 152.833786,354.074127   C148.552261,354.283020 144.287430,354.722534 140.200760,356.208923   C143.817932,367.135803 163.535538,375.162292 176.141022,370.883881   C174.703659,366.003265 170.324814,362.868927 168.563217,357.517670  z"/>
<path fill="#d7d7d7" opacity="1.000000" stroke="none" d=" M320.233459,237.255005   C325.202972,232.309311 329.919403,227.610306 334.657471,222.933212   C339.275574,218.374542 340.760803,224.142349 343.381195,225.735428   C346.497070,227.629745 345.261230,229.677353 343.144409,231.714127   C338.827454,235.867767 334.750641,240.274231 330.377563,244.365585   C321.063995,253.079132 317.155334,264.106995 316.390930,276.474152   C315.537170,290.286682 316.148346,304.078461 317.449951,317.840363   C317.620483,319.643555 318.107117,321.450684 318.690033,323.173920   C319.862610,326.640350 322.176788,328.876740 326.035553,328.791473   C328.721100,328.732117 330.334442,327.132904 330.756561,324.498596   C331.398438,320.493225 329.106445,318.347839 325.794495,316.827362   C321.207794,314.721649 319.235046,310.700592 320.213074,305.884979   C320.564148,304.156403 321.338135,303.069214 323.213562,303.365936   C337.307465,305.595703 346.417877,315.555298 342.711426,329.530518   C340.875916,336.451416 334.607910,340.992432 327.623718,341.391998   C318.942780,341.888641 311.345428,337.415527 307.765015,329.847443   C304.826233,323.635498 304.805511,316.908051 304.360809,310.313477   C303.430756,296.522400 303.152710,282.684235 304.991577,268.953705   C306.598541,256.954926 311.423431,246.290207 320.233459,237.255005  z"/>
<path fill="#d7d7d7" opacity="1.000000" stroke="none" d=" M211.633636,346.647888   C221.073502,335.603119 231.227859,325.721313 241.592148,316.114685   C253.210999,305.345184 267.898102,302.463379 283.194977,301.962128   C287.518890,301.820404 291.857147,301.729431 296.176147,301.912872   C303.078156,302.206055 299.757507,307.854156 300.525238,311.112366   C301.378510,314.733459 298.193329,314.367493 295.912140,314.316895   C286.413818,314.106110 276.967804,314.380341 267.606812,316.298126   C261.258179,317.598724 255.421204,320.058105 250.703873,324.411591   C239.571686,334.685181 228.739883,345.282227 218.872192,356.806152   C216.595795,359.464630 214.464874,362.285156 214.138901,365.970917   C213.889755,368.787903 214.560928,371.306793 217.049179,372.959839   C218.579529,373.976501 220.237320,373.821777 221.755722,372.838837   C224.300888,371.191223 224.909134,368.699890 224.644943,365.868652   C224.614090,365.537994 224.653732,365.138123 224.484024,364.892242   C219.775375,358.070282 225.357498,354.887543 229.139481,351.030640   C235.368958,354.463318 238.860199,364.614136 236.697388,372.558868   C234.354355,381.165649 227.384766,386.514038 218.775574,386.311829   C210.509567,386.117706 203.333511,379.929230 201.722031,371.425995   C199.794662,361.255890 205.201630,353.913361 211.633636,346.647888  z"/>
<path fill="#d7d7d7" opacity="1.000000" stroke="none" d=" M76.798920,215.122421   C74.323120,213.679626 72.218170,212.247635 69.592209,212.223785   C66.166946,212.192673 63.599945,213.549652 63.374317,217.242020   C63.147896,220.947403 65.465851,222.697189 68.955666,222.826004   C70.416008,222.879929 71.968033,222.639679 73.352501,222.165573   C78.307785,220.468735 82.178894,221.821320 84.910149,226.266113   C85.740974,227.618195 85.830551,228.734024 84.566086,229.773422   C73.298897,239.035187 57.612694,236.707809 52.045013,224.909500   C49.034462,218.529938 50.370319,210.355927 55.251522,205.348602   C60.886917,199.567612 67.682281,198.004883 75.405197,200.369308   C81.483658,202.230240 86.331085,206.121201 90.849274,210.279190   C100.530678,219.188782 109.975548,228.345825 119.097412,237.851562   C129.131927,248.308411 133.295044,261.010651 134.155792,274.971954   C134.522156,280.914337 134.780502,286.901093 134.652878,292.908203   C134.539673,298.236969 132.174301,299.517517 127.650093,299.223236   C126.176140,299.127380 124.651718,299.530365 122.818794,298.440857   C122.095970,291.471558 122.637001,284.155243 122.241959,276.887482   C121.496254,263.168030 116.262627,251.905029 106.458168,242.385880   C96.902519,233.108322 87.892334,223.259583 76.798920,215.122421  z"/>
<path fill="#d7d7d7" opacity="1.000000" stroke="none" d=" M173.462082,304.358398   C183.478729,306.681458 192.047958,310.933899 199.146423,317.839386   C204.276581,322.830078 209.308929,327.933258 214.168259,333.186646   C218.229523,337.577240 212.656281,338.981628 211.134186,341.530396   C209.453796,344.344269 207.470276,343.499329 205.518021,341.449829   C202.073196,337.833435 198.376358,334.452972 194.999237,330.776978   C185.721161,320.677734 174.006638,315.460541 160.608353,314.604706   C145.650543,313.649323 130.660095,314.255310 115.772018,316.308197   C112.853073,316.710632 110.343872,317.908844 108.680359,320.466888   C107.129639,322.851440 107.175896,325.228638 109.145546,327.319427   C111.141724,329.438354 113.637321,329.518402 115.974579,328.086792   C117.344246,327.247772 118.588463,325.972717 119.479660,324.623383   C123.571327,318.428406 124.869759,317.837524 132.736740,319.201660   C134.508957,328.577423 127.336624,338.878632 117.500465,341.084625   C107.570732,343.311615 98.141304,338.047546 95.867500,329.007843   C93.176376,318.309082 99.529984,307.123627 110.551323,304.904114   C126.603165,301.671448 142.947144,301.508026 159.265060,302.302399   C163.892975,302.527679 168.604416,302.614166 173.462082,304.358398  z"/>
<path fill="#d7d7d7" opacity="1.000000" stroke="none" d=" M101.415283,97.338684   C114.077347,88.955200 128.832565,94.268791 131.627365,109.298126   C135.495361,130.098862 136.393402,151.265884 132.558395,172.304398   C130.909348,181.350937 126.675545,189.260422 120.342842,195.943817   C115.191078,201.380859 109.846252,206.634415 104.636719,212.017395   C99.758591,217.057938 97.864983,211.183533 95.080399,209.294327   C91.725830,207.018433 94.278503,205.055023 95.997131,203.304077   C98.912735,200.333618 101.756699,197.269043 104.886017,194.536331   C116.961372,183.991287 122.236458,170.536835 122.586014,154.756683   C122.874092,141.751755 122.102974,128.821396 120.541779,115.926567   C120.343285,114.287140 119.921410,112.639412 119.352043,111.087608   C118.175201,107.880150 116.058624,105.496239 112.384827,105.765144   C109.919601,105.945580 107.932159,107.509773 107.533005,110.118019   C106.967949,113.810417 109.044418,116.668709 112.230042,117.437515   C118.385391,118.923012 117.949768,123.452629 118.103485,127.926170   C118.191940,130.500671 116.940300,131.622574 114.374039,131.140579   C106.474365,129.656906 99.658401,126.414886 96.396889,118.534058   C93.106186,110.582664 95.144653,103.566513 101.415283,97.338684  z"/>
<path fill="#d7d7d7" opacity="1.000000" stroke="none" d=" M370.643555,199.347748   C378.767426,200.377975 384.570862,204.026917 387.212738,211.595200   C389.545288,218.277328 388.415894,224.568237 383.415619,229.630081   C377.625366,235.491714 370.546631,236.732895 362.693634,234.332657   C357.597870,232.775146 353.590057,229.564621 349.636292,226.243423   C339.297302,217.558578 329.923340,207.859619 320.415802,198.302872   C305.921295,183.733398 303.412567,165.417496 304.143188,146.102859   C304.212280,144.276642 304.583038,142.457260 304.586700,140.634247   C304.591980,138.001190 305.670288,136.897705 308.389557,136.531830   C315.865173,135.525940 316.316650,135.841782 316.355652,143.351303   C316.386780,149.337097 316.410370,155.332657 316.758820,161.305115   C317.527771,174.484604 323.679321,184.935776 333.138428,193.892395   C341.833374,202.125473 349.860565,211.068054 359.360779,218.439163   C362.137604,220.593689 365.058228,222.644379 368.703583,222.834579   C372.248932,223.019531 375.179504,221.589722 375.473175,217.748230   C375.783661,213.687653 372.769531,212.401901 369.296295,212.136780   C368.158051,212.049881 366.954041,212.211319 365.841766,212.498215   C359.116058,214.233002 357.146912,213.478851 352.680847,206.968689   C357.509369,202.097443 363.155762,199.166748 370.643555,199.347748  z"/>
<path fill="#d7d7d7" opacity="1.000000" stroke="none" d=" M281.292236,133.040131   C275.911621,132.118912 270.909485,132.226303 265.978149,131.180176   C247.877289,127.340210 235.788666,114.952354 224.129089,102.033012   C220.470657,97.979294 225.892426,96.592583 227.437317,94.176544   C229.034088,91.679337 230.965256,92.361282 232.800003,94.193428   C236.452087,97.840317 240.230927,101.362411 243.827560,105.062241   C253.617767,115.133331 265.680481,119.927948 279.529602,120.650681   C292.693481,121.337631 305.828064,120.723099 318.931915,119.505646   C321.539520,119.263382 324.190125,118.525909 326.615753,117.521461   C329.769257,116.215622 331.830505,113.720589 331.195496,110.080116   C330.760376,107.585564 328.870361,105.844322 326.338348,105.705009   C322.968781,105.519623 320.858826,107.570206 319.496613,110.564949   C317.065704,115.909195 313.900574,117.406883 308.214783,116.347008   C306.320801,115.993965 305.572571,115.057480 305.821930,113.308540   C307.442291,101.943832 314.993530,92.980072 326.849274,93.425591   C335.037903,93.733307 341.544281,99.158440 343.275726,106.988922   C345.151794,115.473480 341.119049,124.278580 333.563965,128.040009   C328.879761,130.372116 323.827606,131.549927 318.665741,131.911652   C306.383484,132.772354 294.099915,133.889130 281.292236,133.040131  z"/>
<path fill="#d7d7d7" opacity="1.000000" stroke="none" d=" M159.536285,120.560806   C175.609650,120.022690 187.936829,112.807411 198.421906,101.772675   C205.069962,94.776123 211.794571,87.852379 218.457138,80.869537   C221.245728,77.946899 223.652679,74.697784 224.537247,70.705276   C225.241104,67.528343 225.107254,64.330559 221.853821,62.288479   C219.849777,61.030613 217.882385,61.551880 216.312500,62.922531   C213.647934,65.248947 213.140549,68.212601 214.385635,71.540825   C216.493271,77.174767 215.545990,80.245926 211.004578,83.655891   C209.508209,84.779465 208.494675,84.721115 207.155334,83.406075   C200.380035,76.753815 199.436676,63.594597 205.290634,56.207344   C210.815033,49.235954 219.444077,47.140709 227.193100,50.889141   C234.618347,54.480957 238.818832,63.528839 236.894745,71.923149   C235.641266,77.391731 232.940750,82.099640 229.319122,86.365845   C219.712585,97.682129 209.159576,108.099838 198.366058,118.232674   C186.258484,129.599106 170.898911,132.448944 154.974884,133.206192   C152.482803,133.324707 149.981094,133.278595 147.484360,133.254272   C137.520828,133.157242 136.272720,131.525833 138.391357,120.597366   C145.189240,120.597366 152.133362,120.597366 159.536285,120.560806  z"/>
<path fill="#d7d7d7" opacity="1.000000" stroke="none" d=" M264.472229,300.530701   C261.360901,301.757050 259.778809,300.850067 258.698364,298.120789   C252.086258,281.418457 245.408539,264.741821 238.661331,248.093643   C237.678741,245.669205 238.226425,244.011810 240.111450,242.415039   C241.629807,241.128845 243.087265,239.735077 244.375687,238.222061   C246.040726,236.266800 247.844345,236.029617 250.147736,236.963226   C266.640503,243.647980 283.147308,250.298340 299.673950,256.898865   C302.238190,257.922943 303.504303,259.315948 302.474030,262.201599   C301.596436,264.659729 301.804596,267.459930 299.948975,270.225708   C285.414612,264.537628 270.859161,258.841309 256.303711,253.145004   C255.821976,253.571808 255.340256,253.998627 254.858521,254.425446   C260.616455,268.934875 266.374359,283.444305 272.173126,298.056641   C269.766479,299.907318 267.259857,299.998718 264.472229,300.530701  z"/>
<path fill="#d7d7d7" opacity="1.000000" stroke="none" d=" M302.062805,170.984863   C303.467712,175.242874 302.211365,177.327408 298.256744,178.863052   C282.434357,185.007141 266.717957,191.428711 251.033905,197.920441   C248.119476,199.126755 246.144150,198.802429 243.999588,196.518768   C236.552490,188.588593 236.740509,191.779037 240.983887,181.450836   C246.865295,167.135681 252.740036,152.817795 258.642548,138.511353   C260.268738,134.569794 268.704681,133.203003 271.382111,136.499313   C272.819794,138.269287 271.372009,140.008423 270.729736,141.610809   C266.209625,152.887863 261.596008,164.127396 257.039917,175.390106   C256.316620,177.178162 255.252670,178.926224 255.644028,180.958755   C258.013947,182.208023 259.733887,180.737442 261.471802,180.042938   C272.443573,175.658386 283.376282,171.175888 294.315887,166.711014   C300.528229,164.175537 300.523102,164.163010 302.062805,170.984863  z"/>
<path fill="#d7d7d7" opacity="1.000000" stroke="none" d=" M180.931641,295.754028   C178.352203,302.477325 176.154037,302.835938 166.554764,298.075287   C172.338013,283.562988 178.144196,268.993134 183.950394,254.423279   C183.561371,253.942017 183.172348,253.460754 182.783310,252.979492   C168.104202,258.790710 153.425110,264.601898 138.802383,270.390778   C136.571426,267.155121 136.670898,263.880493 135.978760,260.843781   C135.496643,258.728546 137.076157,257.852753 138.658661,257.209564   C155.472092,250.375946 172.301926,243.582687 189.113968,236.745621   C191.083374,235.944687 192.442368,236.424225 193.975937,237.906845   C201.290955,244.978897 201.354446,244.936996 197.472168,254.626862   C192.023407,268.226471 186.547058,281.815002 180.931641,295.754028  z"/>
<path fill="#d7d7d7" opacity="1.000000" stroke="none" d=" M151.381409,169.544922   C161.884277,173.817245 171.908432,178.273666 182.746750,181.710571   C183.415955,178.670517 182.068680,176.500244 181.183990,174.300919   C176.833847,163.486694 172.346008,152.727264 168.080765,141.880081   C167.301224,139.897598 164.938232,137.271622 169.023727,135.765869   C175.097000,133.527527 178.292831,133.906830 179.781219,137.539047   C186.409515,153.714462 192.829315,169.976089 199.556290,186.109894   C202.221725,192.502609 195.843292,193.790390 193.699768,197.425049   C192.046661,200.228073 189.598358,198.467926 187.495728,197.625214   C172.657501,191.678207 157.829987,185.704483 142.987091,179.769180   C135.200119,176.655334 135.183411,176.681137 137.223709,168.544189   C137.501328,167.437027 137.871338,166.353027 138.325439,164.833923   C142.949478,165.724136 146.880478,167.893768 151.381409,169.544922  z"/>
<path fill="#d7d7d7" opacity="1.000000" stroke="none" d=" M153.541077,224.461914   C158.025711,222.321304 162.717728,221.429901 167.447357,217.290482   C153.292389,209.516846 138.339355,205.207809 124.523438,198.169876   C124.872505,197.188828 124.990318,196.538742 125.308983,196.009644   C130.567535,187.278793 130.565750,187.299667 140.019043,191.339432   C154.239151,197.416275 168.413818,203.606155 182.735336,209.434631   C186.628204,211.018921 187.411606,213.424591 187.245880,217.135117   C187.080414,220.839523 187.423035,223.962372 182.726578,225.815277   C167.730057,231.731873 152.994888,238.307388 138.103317,244.494934   C131.029404,247.434189 130.963593,247.303238 126.621429,241.040298   C125.881271,239.972748 125.253578,238.827209 124.323158,237.308319   C133.758408,232.175400 143.696671,228.881088 153.541077,224.461914  z"/>
<path fill="#d7d7d7" opacity="1.000000" stroke="none" d=" M220.289154,165.560898   C226.554459,151.490005 232.591095,137.628387 238.694092,123.614388   C242.704758,124.133835 245.167145,126.707115 247.838608,128.807648   C249.309494,129.964203 248.598236,131.562286 248.015671,132.948624   C241.111877,149.377899 234.136215,165.777237 227.304321,182.236282   C225.253143,187.177872 221.101486,184.827286 217.790527,185.314102   C214.996964,185.724823 212.710999,185.201874 211.391663,182.017151   C204.635406,165.708328 197.752274,149.451218 190.775085,133.235596   C189.521805,130.322861 190.118500,128.488449 192.799500,127.125900   C194.998886,126.008125 196.756790,124.030533 199.768936,123.640251   C203.008789,128.576294 204.766190,134.336655 207.177933,139.754837   C210.427399,147.055008 213.257751,154.540802 216.416138,161.883194   C217.113983,163.505554 217.214630,166.024216 220.289154,165.560898  z"/>
<path fill="#d7d7d7" opacity="1.000000" stroke="none" d=" M218.309662,270.031555   C212.973236,282.552582 207.811417,294.814575 202.619492,307.063812   C201.918304,308.718048 201.556686,310.583588 199.650101,312.093445   C196.610764,311.229980 194.204147,308.819489 191.387192,307.212555   C189.453415,306.109436 190.164429,304.383759 190.824036,302.802856   C197.744461,286.216095 204.731567,269.656616 211.529541,253.019852   C212.769348,249.985596 214.913330,249.557831 217.500305,249.932556   C220.815140,250.412704 225.033264,247.988647 227.063354,252.886200   C233.945435,269.489197 240.918762,286.054413 247.767532,302.671082   C248.973755,305.597626 245.269592,310.280975 240.671982,311.701721   C237.071198,312.814392 237.135773,309.429016 236.366913,307.596893   C231.538147,296.090149 226.944305,284.484711 222.091919,272.988251   C221.508118,271.605103 221.794693,268.408386 218.309662,270.031555  z"/>
<path fill="#d7d7d7" opacity="1.000000" stroke="none" d=" M294.640106,206.781250   C286.578156,210.314194 278.570099,213.053116 269.817871,217.837997   C285.492157,224.478485 300.007843,230.628128 314.881866,236.929581   C312.730164,240.132538 311.037018,242.564072 309.440399,245.057434   C308.145569,247.079529 306.470917,246.815140 304.649231,246.050079   C288.089508,239.095505 271.553131,232.084488 254.955597,225.221390   C250.366562,223.323837 252.016953,219.513336 251.706131,216.255753   C251.432495,213.387894 252.026123,211.297714 255.166931,209.982986   C271.429718,203.175537 287.616699,196.185455 303.784912,189.155197   C306.602753,187.929962 308.453125,188.405533 309.998108,191.055664   C311.241455,193.188416 312.761902,195.159622 314.527740,197.740921   C308.259064,201.745773 301.287048,203.498032 294.640106,206.781250  z"/>
<path fill="#d7d7d7" opacity="1.000000" stroke="none" d=" M199.870331,217.972443   C200.575912,200.891953 216.980148,193.465775 229.644104,200.922119   C237.026932,205.269012 240.363480,213.969055 238.173615,222.513184   C236.015152,230.934784 229.004837,236.578491 220.036621,237.114456   C211.929459,237.598969 203.931564,232.212769 201.140518,224.233780   C200.488586,222.370041 200.288162,220.348358 199.870331,217.972443  M214.905487,221.516800   C216.648346,223.318329 218.749512,224.251511 221.137604,223.218750   C224.304886,221.849030 226.414764,219.448944 225.088516,215.844025   C223.912720,212.648041 221.469833,210.662033 217.732651,211.831284   C213.816208,213.056610 212.690323,216.349609 214.905487,221.516800  z"/>
</svg>