<svg xmlns="http://www.w3.org/2000/svg" width="228" height="35" fill="none" viewBox="0 0 228 35"><path fill="#F0F0F0" d="M100.06 31.342c-3.002 1.878-6.575 2.876-10.344 2.876H.703A.705.705 0 0 1 0 33.515c0-.387.316-.703.703-.703h89.013c3.495 0 6.814-.921 9.592-2.658 4.725-2.96 7.123-7.532 7.123-13.586 0-8.347-4.788-12.96-9.275-14.494-4.86-1.66-9.838-.154-13.002 3.938-2.448 3.158-2.813 6.308-2.16 8.924v.014c.64 1.955 2.673 4.424 5.331 5.359 1.99.703 3.96.429 5.844-.802 2.764-1.807 3.122-4.226 2.243-5.822-.5-.908-1.519-1.667-2.588-1.182-.682.31-1.104.724-1.294 1.28-.38 1.146.359 2.51.359 2.518.148.26.112.59-.091.815a.705.705 0 0 1-.795.183c-1.582-.654-3.811-2.869-3.889-5.323-.042-1.35.556-3.263 3.615-4.761 3.143-1.533 6.603-.267 8.417 3.08 1.983 3.657 1.385 8.917-3.586 11.898-4.74 2.841-9.662.964-12.433-2.158a11.202 11.202 0 0 1-2.405-4.43c-.028-.071-.05-.141-.077-.212a.732.732 0 0 1-.036-.204c-.73-3.066-.21-6.645 2.413-10.034C85.615 1.807 89.294 0 93.218 0c1.442 0 2.918.246 4.381.745 4.944 1.695 10.232 6.737 10.232 15.83 0 8.192-4.233 12.56-7.785 14.788l.014-.02Z"/><path fill="#F0F0F0" d="M95.932 26.195a.708.708 0 0 1-.598.752c-.084.014-8.903 1.364-20.653 1.364a.702.702 0 0 1-.703-.689c0-.134-.028-3.235 3.452-6.59a.692.692 0 0 1 .486-.189c.049 0 .105 0 .161.014a.73.73 0 0 1 .514.436c.014.042 1.877 4.248 16.645 4.248.365 0 .675.28.703.654h-.007ZM72.395 28.016c-.126 0-12.657.443-25.196-.127-7.383-.337-13.333-.956-17.686-1.842-5.787-1.175-8.79-2.827-9.17-5.056-.21-1.245.015-2.173.669-2.764.548-.5 1.343-.717 2.412-.717 2.243 0 5.703.963 10.681 2.348 8.784 2.448 22.06 6.154 38.298 6.737.38.014.682.324.682.704 0 .38-.303.689-.682.703l-.008.014ZM49.31 16.99c-4.5-3.27-4.957-5.71-4.83-6.87.105-.978.696-1.766 1.61-2.16.436-.19.914-.281 1.42-.281 1.118 0 2.349.443 3.467 1.287.809.612 1.737 1.378 2.806 2.271 4.57 3.812 11.49 9.578 20.238 11.554a.701.701 0 0 1 .542.788.708.708 0 0 1-.746.604c-.654-.042-16.075-1.083-24.507-7.194ZM70.039 3.22c1.92.704 1.969 3.102 2.032 5.872.077 3.636.183 8.165 4.044 11.188a.702.702 0 0 1 .154.943.696.696 0 0 1-.92.239c-.275-.148-6.738-3.608-9.044-9.676-1.442-3.798-1.47-6.667-.07-8.08.351-.359 1.02-.823 2.095-.823.485 0 1.048.091 1.709.337ZM127.601 31.342c3.003 1.878 6.575 2.876 10.345 2.876h89.012a.706.706 0 0 0 .704-.703.706.706 0 0 0-.704-.703h-89.012c-3.495 0-6.815-.921-9.592-2.658-4.726-2.96-7.124-7.532-7.124-13.586 0-8.347 4.789-12.96 9.276-14.494 4.859-1.66 9.838-.154 13.002 3.938 2.447 3.158 2.813 6.308 2.159 8.924v.014c-.64 1.955-2.672 4.424-5.33 5.359-1.991.703-3.96.429-5.844-.802-2.764-1.807-3.122-4.226-2.243-5.823.499-.907 1.519-1.666 2.587-1.18.683.309 1.104.723 1.294 1.279.38 1.146-.358 2.51-.358 2.518a.701.701 0 0 0 .091.815c.197.225.52.296.795.183 1.582-.654 3.811-2.869 3.889-5.323.042-1.35-.556-3.263-3.615-4.761-3.143-1.533-6.603-.267-8.417 3.08-1.984 3.657-1.386 8.917 3.586 11.898 4.74 2.841 9.662.964 12.433-2.158a11.198 11.198 0 0 0 2.405-4.43c.028-.071.049-.141.077-.212a.735.735 0 0 0 .035-.204c.732-3.066.211-6.645-2.412-10.034C142.045 1.807 138.368 0 134.444 0c-1.442 0-2.919.246-4.381.745-4.944 1.695-10.232 6.737-10.232 15.83 0 8.192 4.233 12.56 7.784 14.788l-.014-.02Z"/><path fill="#F0F0F0" d="M131.73 26.194a.708.708 0 0 0 .597.753c.085.014 8.903 1.364 20.654 1.364.386 0 .696-.31.703-.69 0-.133.028-3.234-3.453-6.588a.692.692 0 0 0-.485-.19c-.049 0-.106 0-.162.014a.728.728 0 0 0-.513.436c-.014.042-1.878 4.247-16.645 4.247a.705.705 0 0 0-.703.654h.007ZM155.266 28.016c.127 0 12.658.443 25.196-.127 7.384-.337 13.333-.956 17.686-1.842 5.787-1.175 8.79-2.827 9.17-5.056.211-1.245-.014-2.173-.668-2.764-.549-.5-1.343-.717-2.412-.717-2.243 0-5.703.963-10.682 2.348-8.783 2.448-22.06 6.154-38.297 6.737a.705.705 0 0 0-.682.703c0 .38.302.69.682.704l.007.014ZM178.351 16.99c4.501-3.27 4.958-5.71 4.831-6.871-.105-.978-.696-1.765-1.61-2.159a3.533 3.533 0 0 0-1.421-.281c-1.118 0-2.348.443-3.467 1.287-.808.611-1.736 1.378-2.805 2.271-4.571 3.812-11.491 9.578-20.239 11.554a.7.7 0 0 0-.541.787.708.708 0 0 0 .745.605c.654-.042 16.076-1.083 24.507-7.194ZM157.623 3.22c-1.92.704-1.969 3.102-2.033 5.872-.077 3.636-.182 8.164-4.043 11.188a.703.703 0 0 0-.155.943c.197.309.598.415.921.239.275-.148 6.737-3.608 9.044-9.676 1.441-3.798 1.469-6.667.07-8.08-.352-.36-1.02-.823-2.096-.823-.485 0-1.047.091-1.708.337Z"/></svg>